<svg width="51" height="54" viewBox="0 0 51 54" fill="none" xmlns="http://www.w3.org/2000/svg">
<path d="M14.2961 30.3613L21.8444 21.9466L3.12026 1.10291C1.12208 3.33687 0 6.36292 0 9.51768C0 12.6724 1.12208 15.6985 3.12026 17.9324L14.2961 30.3613ZM32.3801 24.9794C34.8228 25.9383 37.467 26.0599 39.9722 25.3285C42.4775 24.5972 44.7289 23.0465 46.4365 20.8761C51.531 15.1969 52.5179 7.04974 48.597 2.67882C44.6761 -1.6921 37.3945 -0.591938 32.2734 5.08729C30.3265 6.99094 28.9354 9.5008 28.2794 12.2936C27.6234 15.0864 27.7325 18.0341 28.5926 20.7572L2.56014 49.7777L6.32097 53.9703L24.6984 33.5429L43.0491 54L46.8099 49.8075L28.4592 29.3504L32.3801 24.9794Z" fill="white"/>
</svg>
