<svg width="57" height="56" viewBox="0 0 57 56" fill="none" xmlns="http://www.w3.org/2000/svg">
<path d="M17.296 44.8C16.1885 44.8 15.1058 45.1284 14.1849 45.7438C13.2639 46.3591 12.5462 47.2337 12.1223 48.257C11.6985 49.2802 11.5876 50.4062 11.8037 51.4925C12.0197 52.5788 12.5531 53.5766 13.3363 54.3598C14.1194 55.143 15.1173 55.6763 16.2035 55.8924C17.2898 56.1085 18.4158 55.9976 19.4391 55.5737C20.4623 55.1499 21.3369 54.4321 21.9523 53.5112C22.5676 52.5903 22.896 51.5076 22.896 50.4C22.896 48.9148 22.306 47.4904 21.2558 46.4402C20.2056 45.39 18.7813 44.8 17.296 44.8ZM0.496094 0V5.6H6.09608L16.176 26.852L12.3961 33.712C11.9329 34.5318 11.6916 35.4584 11.6961 36.4C11.7005 37.8838 12.2919 39.3057 13.3412 40.3549C14.3904 41.4041 15.8122 41.9956 17.296 42H50.8959V36.4H18.472C18.3799 36.4007 18.2885 36.3831 18.2033 36.3482C18.118 36.3133 18.0406 36.2618 17.9754 36.1966C17.9103 36.1315 17.8587 36.054 17.8238 35.9688C17.7889 35.8835 17.7713 35.7921 17.772 35.7L17.856 35.364L20.376 30.8H41.236C42.2363 30.8032 43.2191 30.5371 44.0813 30.0296C44.9434 29.5222 45.6531 28.7921 46.136 27.916L56.1599 9.744C56.3854 9.33225 56.5011 8.86941 56.4959 8.4C56.4959 7.65739 56.2009 6.9452 55.6758 6.4201C55.1507 5.895 54.4385 5.6 53.6959 5.6H12.2841L9.65207 0H0.496094ZM45.296 44.8C44.1884 44.8 43.1057 45.1284 42.1848 45.7438C41.2639 46.3591 40.5461 47.2337 40.1222 48.257C39.6984 49.2802 39.5875 50.4062 39.8036 51.4925C40.0197 52.5788 40.553 53.5766 41.3362 54.3598C42.1193 55.143 43.1172 55.6763 44.2035 55.8924C45.2898 56.1085 46.4157 55.9976 47.439 55.5737C48.4622 55.1499 49.3368 54.4321 49.9522 53.5112C50.5675 52.5903 50.8959 51.5076 50.8959 50.4C50.8959 48.9148 50.3059 47.4904 49.2557 46.4402C48.2055 45.39 46.7812 44.8 45.296 44.8Z" fill="white"/>
</svg>
