<svg width="57" height="55" viewBox="0 0 57 55" fill="none" xmlns="http://www.w3.org/2000/svg">
<path d="M50.2641 0H6.70855C5.06371 0.00807744 3.48905 0.655489 2.32887 1.80067C1.1687 2.94585 0.517419 4.49562 0.517439 6.11111L0.486328 48.8889C0.491252 50.5082 1.14839 52.0597 2.31421 53.2048C3.48004 54.3498 5.05983 54.9952 6.70855 55H50.2641C51.9128 54.9952 53.4926 54.3498 54.6584 53.2048C55.8243 52.0597 56.4814 50.5082 56.4863 48.8889V6.11111C56.4814 4.49183 55.8243 2.94025 54.6584 1.79525C53.4926 0.650236 51.9128 0.00483611 50.2641 0ZM47.153 33.6111H34.7085V45.8333H22.2641V33.6111H9.81966V21.3889H22.2641V9.16667H34.7085V21.3889H47.153V33.6111Z" fill="white"/>
</svg>
