<svg width="37" height="25" viewBox="0 0 37 25" fill="none" xmlns="http://www.w3.org/2000/svg">
<path d="M28.7778 9.375V2.08333C28.7778 1.5308 28.5612 1.0009 28.1757 0.610195C27.7902 0.219494 27.2674 0 26.7222 0H2.05556C1.51039 0 0.98755 0.219494 0.602058 0.610195C0.216567 1.0009 0 1.5308 0 2.08333V22.9167C0 23.4692 0.216567 23.9991 0.602058 24.3898C0.98755 24.7805 1.51039 25 2.05556 25H26.7222C27.2674 25 27.7902 24.7805 28.1757 24.3898C28.5612 23.9991 28.7778 23.4692 28.7778 22.9167V15.625L37 23.9583V1.04167L28.7778 9.375Z" fill="white" fill-opacity="0.9"/>
</svg>
