<svg width="33" height="33" viewBox="0 0 33 33" fill="none" xmlns="http://www.w3.org/2000/svg">
<path d="M3.3 6.6H0V29.7C0.0026115 30.5744 0.351128 31.4123 0.969433 32.0306C1.58774 32.6489 2.42559 32.9974 3.3 33H26.4V29.7H3.3V6.6ZM29.7 0H9.9C9.02559 0.0026115 8.18774 0.351128 7.56943 0.969433C6.95113 1.58774 6.60261 2.42559 6.6 3.3V23.1C6.60261 23.9744 6.95113 24.8123 7.56943 25.4306C8.18774 26.0489 9.02559 26.3974 9.9 26.4H29.7C30.5744 26.3974 31.4123 26.0489 32.0306 25.4306C32.6489 24.8123 32.9974 23.9744 33 23.1V3.3C32.9974 2.42559 32.6489 1.58774 32.0306 0.969433C31.4123 0.351128 30.5744 0.0026115 29.7 0ZM28.05 14.85H21.45V21.45H18.15V14.85H11.55V11.55H18.15V4.95H21.45V11.55H28.05V14.85Z" fill="white" fill-opacity="0.9"/>
<rect x="10" y="3" width="20" height="21" fill="white" fill-opacity="0.9"/>
</svg>
