<svg width="14" height="20" viewBox="0 0 14 20" fill="none" xmlns="http://www.w3.org/2000/svg">
<path d="M13 6C13 4.4087 12.3679 2.88258 11.2426 1.75736C10.1174 0.632141 8.5913 0 7 0C5.4087 0 3.88258 0.632141 2.75736 1.75736C1.63214 2.88258 1 4.4087 1 6C1 10.5 7 17 7 17C7 17 13 10.5 13 6ZM5 6C5 5.60444 5.1173 5.21776 5.33706 4.88886C5.55682 4.55996 5.86918 4.30362 6.23463 4.15224C6.60009 4.00087 7.00222 3.96126 7.39018 4.03843C7.77814 4.1156 8.13451 4.30608 8.41421 4.58579C8.69392 4.86549 8.8844 5.22186 8.96157 5.60982C9.03874 5.99778 8.99913 6.39991 8.84776 6.76537C8.69638 7.13082 8.44004 7.44318 8.11114 7.66294C7.78224 7.8827 7.39556 8 7 8C6.47005 7.99842 5.96227 7.7872 5.58753 7.41247C5.2128 7.03773 5.00158 6.52995 5 6ZM0 18V20H14V18H0Z" fill="#6E6E6E"/>
</svg>
