<svg width="18" height="18" viewBox="0 0 18 18" fill="none" xmlns="http://www.w3.org/2000/svg">
<path d="M3.62 7.79C5.06961 10.6246 7.37543 12.9304 10.21 14.38L12.41 12.18C12.5408 12.049 12.7056 11.9571 12.8858 11.9147C13.066 11.8723 13.2545 11.881 13.43 11.94C14.5821 12.3186 15.7873 12.511 17 12.51C17.2652 12.51 17.5196 12.6154 17.7071 12.8029C17.8946 12.9904 18 13.2448 18 13.51V17C18 17.2652 17.8946 17.5196 17.7071 17.7071C17.5196 17.8946 17.2652 18 17 18C12.4913 18 8.1673 16.2089 4.97918 13.0208C1.79107 9.8327 0 5.50868 0 1C0 0.734784 0.105357 0.48043 0.292893 0.292893C0.48043 0.105357 0.734784 0 1 0H4.5C4.76522 0 5.01957 0.105357 5.20711 0.292893C5.39464 0.48043 5.5 0.734784 5.5 1C5.49821 2.2128 5.69065 3.41806 6.07 4.57C6.12701 4.74648 6.13382 4.93533 6.08967 5.11546C6.04553 5.29559 5.95216 5.45989 5.82 5.59L3.62 7.79Z" fill="#6E6E6E"/>
</svg>
