<svg width="12" height="17" viewBox="0 0 12 17" fill="none" xmlns="http://www.w3.org/2000/svg">
<mask id="path-1-inside-1" fill="white">
<path fill-rule="evenodd" clip-rule="evenodd" d="M11.6875 0H0V17H0.145755L5.66667 8.5L11.1876 17H11.6875V0Z"/>
</mask>
<path d="M0 0V-1H-1V0H0ZM11.6875 0H12.6875V-1H11.6875V0ZM0 17H-1V18H0V17ZM0.145755 17V18H0.688659L0.984382 17.5447L0.145755 17ZM5.66667 8.5L6.50529 7.9553L5.66667 6.66414L4.82804 7.9553L5.66667 8.5ZM11.1876 17L10.349 17.5447L10.6447 18H11.1876V17ZM11.6875 17V18H12.6875V17H11.6875ZM0 1H11.6875V-1H0V1ZM1 17V0H-1V17H1ZM0.145755 16H0V18H0.145755V16ZM0.984382 17.5447L6.50529 9.0447L4.82804 7.9553L-0.692873 16.4553L0.984382 17.5447ZM4.82804 9.0447L10.349 17.5447L12.0262 16.4553L6.50529 7.9553L4.82804 9.0447ZM11.6875 16H11.1876V18H11.6875V16ZM10.6875 0V17H12.6875V0H10.6875Z" fill="#002668" mask="url(#path-1-inside-1)"/>
</svg>
