<svg width="13" height="14" viewBox="0 0 13 14" fill="none" xmlns="http://www.w3.org/2000/svg">
<path d="M10.843 9.8955C10.3182 9.89773 9.8132 10.0908 9.42717 10.4367L4.27667 7.51995C4.3165 7.35871 4.3383 7.19376 4.34169 7.02797C4.3383 6.86218 4.3165 6.69723 4.27667 6.53599L9.36938 3.64738C9.734 3.97571 10.2037 4.17185 10.6995 4.2028C11.1953 4.23375 11.6869 4.09762 12.0917 3.81732C12.4965 3.53701 12.7896 3.12963 12.9219 2.66371C13.0542 2.19778 13.0176 1.70174 12.8181 1.25903C12.6186 0.81632 12.2686 0.453951 11.8267 0.232883C11.3849 0.0118154 10.8783 -0.054463 10.3922 0.0451976C9.90604 0.144858 9.47001 0.404377 9.15743 0.780097C8.84485 1.15582 8.67481 1.62481 8.6759 2.10819C8.67929 2.27398 8.70109 2.43893 8.74092 2.60017L3.64821 5.48878C3.33976 5.20781 2.95361 5.0207 2.53728 4.95048C2.12095 4.88026 1.69261 4.92998 1.30495 5.09354C0.917286 5.25709 0.587225 5.52734 0.355375 5.87103C0.123525 6.21472 0 6.61686 0 7.02797C0 7.43908 0.123525 7.84121 0.355375 8.18491C0.587225 8.5286 0.917286 8.79885 1.30495 8.9624C1.69261 9.12596 2.12095 9.17568 2.53728 9.10546C2.95361 9.03523 3.33976 8.84813 3.64821 8.56716L8.79148 11.4909C8.75405 11.6405 8.73466 11.7938 8.73369 11.9477C8.73369 12.3536 8.8574 12.7504 9.08918 13.0879C9.32095 13.4254 9.65038 13.6885 10.0358 13.8438C10.4212 13.9991 10.8453 14.0398 11.2545 13.9606C11.6637 13.8814 12.0395 13.6859 12.3345 13.3989C12.6295 13.1119 12.8304 12.7462 12.9118 12.3481C12.9932 11.95 12.9514 11.5374 12.7918 11.1624C12.6321 10.7874 12.3618 10.4669 12.0149 10.2414C11.668 10.0159 11.2602 9.8955 10.843 9.8955Z" fill="#002668"/>
</svg>
